<?xml version="1.0" standalone="no"?>
<!DOCTYPE svg PUBLIC "-//W3C//DTD SVG 20010904//EN"
 "http://www.w3.org/TR/2001/REC-SVG-20010904/DTD/svg10.dtd">
<svg version="1.0" xmlns="http://www.w3.org/2000/svg"
 width="512.000000pt" height="512.000000pt" viewBox="0 0 512.000000 512.000000"
 preserveAspectRatio="xMidYMid meet">

<g transform="translate(0.000000,512.000000) scale(0.100000,-0.100000)"
fill="#000000" stroke="none">
<path d="M1077 4791 c-208 -120 -386 -225 -394 -234 -40 -40 -3 -121 54 -119
17 0 127 58 281 146 138 80 252 143 252 140 0 -5 -1086 -1888 -1107 -1919 -11
-16 -13 82 -13 630 l1 650 141 80 c78 44 150 88 160 98 28 27 24 81 -8 106
-15 12 -34 21 -44 21 -24 0 -351 -187 -377 -216 l-23 -25 0 -837 c1 -669 3
-840 14 -854 16 -21 1432 -840 1463 -846 15 -3 73 24 175 83 84 49 158 91 163
94 6 3 3 -6 -6 -19 -47 -73 -89 -160 -89 -184 0 -26 791 -1406 833 -1453 l20
-23 843 0 c787 0 843 1 863 18 11 9 205 339 431 732 303 526 410 722 408 740
-4 24 -805 1416 -836 1453 -14 16 -58 17 -664 17 l-648 0 0 539 c0 498 -1 540
-17 560 -10 11 -337 205 -728 431 -503 291 -719 410 -740 410 -21 0 -145 -66
-408 -219z m918 -886 c279 -483 510 -887 512 -896 3 -10 -48 -108 -117 -228
l-122 -211 -1029 0 c-566 0 -1029 3 -1029 7 0 8 1273 2214 1276 2210 1 -1 230
-398 509 -882z m490 371 l330 -191 3 -508 2 -508 -86 3 -86 3 -474 820 c-261
451 -474 823 -474 827 0 7 82 -40 785 -446z m1449 -1355 c-13 -13 -1926 -1122
-1929 -1119 -2 2 141 253 316 558 l319 555 407 5 c782 10 897 10 887 1z m225
-1232 c1 -467 2 -498 19 -520 28 -33 78 -30 110 7 l25 29 -6 754 c-5 622 -4
752 7 740 18 -20 639 -1092 639 -1104 0 -5 -144 -262 -321 -570 l-322 -559 0
202 c0 202 0 203 -25 227 -30 31 -71 32 -102 3 -23 -21 -23 -22 -23 -301 0
-231 -2 -278 -14 -274 -7 3 -148 83 -312 177 -165 95 -656 377 -1091 627 -436
251 -793 459 -793 462 0 3 35 26 78 50 68 38 1223 708 1882 1091 l235 136 6
-340 c3 -188 7 -564 8 -837z m-1993 704 c-8 -16 -55 -98 -104 -183 l-90 -155
-243 -142 -244 -141 -30 18 c-32 18 -193 112 -745 430 -184 106 -337 194 -339
196 -2 2 404 4 903 4 l907 0 -15 -27z m834 -1588 c514 -296 937 -539 939 -541
2 -2 -288 -4 -645 -4 l-649 1 -290 501 c-159 276 -305 529 -324 562 l-34 60
34 -21 c19 -11 455 -263 969 -558z"/>
<path d="M1372 3864 c-87 -43 -136 -124 -136 -224 0 -53 5 -75 27 -114 l27
-48 -44 -49 c-111 -124 -99 -318 26 -439 77 -74 213 -101 321 -64 64 22 140
92 174 162 24 49 28 69 28 142 0 96 -20 146 -81 210 l-33 35 25 52 c108 217
-119 444 -334 337z m182 -150 c35 -36 36 -101 2 -141 -20 -23 -32 -28 -69 -28
-75 0 -122 63 -97 131 25 67 114 88 164 38z m2 -343 c62 -28 89 -73 89 -148 0
-69 -17 -101 -75 -140 -99 -68 -250 14 -250 134 0 132 117 208 236 154z"/>
<path d="M3445 2127 c-60 -28 -115 -88 -115 -123 0 -32 42 -74 73 -74 13 0 44
16 68 35 37 29 52 35 94 35 56 0 96 -21 126 -66 39 -59 12 -159 -49 -182 -55
-21 -71 -22 -113 -7 -60 20 -82 19 -107 -8 -37 -39 -29 -80 22 -122 53 -43 70
-81 63 -137 -15 -115 -177 -148 -245 -51 -30 43 -35 80 -17 133 18 53 9 92
-24 109 -58 32 -112 -11 -131 -104 -21 -101 18 -207 101 -279 110 -94 287 -86
386 16 65 68 78 100 79 201 l1 87 51 26 c128 64 184 209 132 347 -44 119 -132
180 -265 185 -68 2 -88 -1 -130 -21z"/>
</g>
</svg>
