<?xml version="1.0" standalone="no"?>
<!DOCTYPE svg PUBLIC "-//W3C//DTD SVG 20010904//EN"
 "http://www.w3.org/TR/2001/REC-SVG-20010904/DTD/svg10.dtd">
<svg version="1.0" xmlns="http://www.w3.org/2000/svg"
 width="512.000000pt" height="512.000000pt" viewBox="0 0 512.000000 512.000000"
 preserveAspectRatio="xMidYMid meet">

<g transform="translate(0.000000,512.000000) scale(0.100000,-0.100000)"
fill="#000000" stroke="none">
<path d="M1905 5106 c-282 -65 -502 -302 -555 -596 -6 -36 -13 -75 -16 -87 -4
-20 -10 -21 -92 -22 -109 -1 -183 -20 -292 -73 -119 -57 -238 -177 -297 -298
-65 -132 -77 -191 -77 -360 1 -210 19 -265 198 -609 155 -297 246 -600 276
-926 6 -66 10 -509 10 -1107 l0 -997 22 -15 c30 -21 54 -20 78 4 21 21 21 24
17 1088 -3 1163 -2 1124 -63 1382 -59 249 -118 402 -272 702 -121 237 -142
301 -149 453 -9 197 46 346 176 475 80 80 160 126 255 149 54 13 192 17 248 6
55 -11 73 13 81 109 24 283 184 508 415 588 94 32 248 32 348 1 84 -27 200
-101 269 -172 65 -67 85 -67 150 0 71 72 179 141 266 170 103 33 254 34 351 1
192 -66 339 -235 397 -457 6 -22 14 -77 17 -123 10 -119 8 -118 156 -114 200
5 303 -33 429 -158 58 -57 85 -93 112 -150 80 -169 88 -344 25 -540 -11 -36
-67 -155 -124 -265 -143 -278 -210 -456 -264 -697 -55 -245 -53 -202 -57
-1355 -4 -1070 -4 -1072 17 -1093 24 -24 49 -26 76 -6 19 14 19 40 25 1088 6
1179 3 1129 70 1397 56 224 131 412 260 651 87 161 122 254 144 379 27 154 15
292 -40 436 -97 259 -348 435 -621 435 l-83 0 -6 38 c-61 392 -323 659 -670
679 -170 10 -350 -51 -492 -167 l-63 -51 -59 49 c-131 110 -267 162 -431 168
-67 2 -127 -1 -165 -10z"/>
<path d="M1915 4737 c-127 -61 -203 -177 -223 -339 -30 -246 91 -494 287 -591
57 -28 76 -32 146 -32 67 0 89 4 136 28 268 131 294 589 48 835 -83 83 -151
115 -259 119 -74 4 -92 1 -135 -20z m223 -117 c209 -95 294 -475 145 -649 -73
-86 -160 -102 -265 -48 -244 126 -289 581 -69 697 48 25 133 26 189 0z"/>
<path d="M2971 4744 c-132 -48 -238 -164 -296 -324 -33 -90 -44 -233 -25 -323
17 -83 73 -188 126 -237 69 -63 124 -85 219 -85 71 0 88 4 147 33 91 44 179
140 229 247 46 99 59 161 59 274 0 178 -76 328 -201 396 -67 36 -187 45 -258
19z m204 -127 c157 -89 185 -379 55 -575 -109 -163 -276 -198 -387 -81 -50 53
-75 121 -81 220 -8 138 34 266 118 361 81 93 207 125 295 75z"/>
<path d="M1144 4030 c-75 -30 -138 -89 -176 -167 -29 -60 -33 -78 -36 -169 -4
-85 0 -116 18 -176 50 -167 161 -303 304 -374 77 -38 84 -39 180 -39 93 0 105
2 154 29 241 134 240 516 -3 762 -96 98 -192 145 -308 150 -66 3 -92 0 -133
-16z m255 -140 c212 -113 318 -426 200 -589 -43 -60 -97 -84 -178 -79 -87 5
-150 36 -227 112 -189 190 -200 493 -19 578 60 28 145 20 224 -22z"/>
<path d="M3768 4040 c-65 -16 -153 -67 -212 -121 -263 -240 -275 -646 -25
-784 50 -28 62 -30 154 -30 94 0 104 2 175 36 141 67 252 199 304 361 25 77
28 97 24 190 -4 118 -29 185 -93 256 -73 81 -214 120 -327 92z m170 -125 c87
-37 132 -118 132 -236 0 -184 -105 -355 -264 -430 -179 -85 -336 20 -336 225
1 266 273 522 468 441z"/>
<path d="M2396 3634 c-172 -42 -316 -169 -496 -439 -30 -44 -94 -133 -143
-199 -154 -203 -221 -345 -234 -495 -16 -186 82 -378 235 -459 135 -72 289
-80 744 -38 25 3 104 0 175 -5 306 -24 366 -26 454 -18 188 17 307 81 388 208
55 85 74 154 75 271 0 93 -3 115 -30 192 -39 108 -89 193 -207 352 -51 68
-130 179 -177 247 -154 225 -296 342 -461 383 -80 20 -241 20 -323 0z m299
-118 c149 -39 242 -125 426 -391 45 -66 106 -149 134 -185 206 -261 263 -441
196 -621 -39 -104 -122 -175 -238 -206 -71 -19 -251 -21 -418 -3 -152 16 -317
16 -470 0 -169 -17 -347 -16 -418 3 -157 42 -251 158 -264 327 -11 134 49 272
215 493 54 73 134 184 178 247 133 193 257 301 383 336 61 16 214 17 276 0z"/>
</g>
</svg>
