<?xml version="1.0" standalone="no"?>
<!DOCTYPE svg PUBLIC "-//W3C//DTD SVG 20010904//EN"
 "http://www.w3.org/TR/2001/REC-SVG-20010904/DTD/svg10.dtd">
<svg version="1.0" xmlns="http://www.w3.org/2000/svg"
 width="512.000000pt" height="512.000000pt" viewBox="0 0 512.000000 512.000000"
 preserveAspectRatio="xMidYMid meet">

<g transform="translate(0.000000,512.000000) scale(0.100000,-0.100000)"
fill="#000000" stroke="none">
<path d="M2525 5067 c-144 -37 -237 -120 -333 -300 -35 -64 -66 -117 -69 -117
-3 0 -133 34 -288 75 -224 59 -298 75 -353 75 -173 0 -331 -99 -403 -253 -15
-34 -43 -117 -61 -184 l-33 -123 -295 0 c-321 0 -368 -6 -462 -57 -58 -31
-147 -123 -177 -181 -53 -105 -51 -20 -51 -1867 0 -1846 -2 -1762 51 -1867 52
-102 175 -193 292 -218 36 -7 435 -10 1307 -8 1410 3 1285 -4 1415 79 34 21
68 39 76 39 33 0 138 61 180 106 26 27 78 103 116 169 605 1038 1633 2824
1651 2870 63 153 11 373 -114 483 -57 51 -2124 1240 -2203 1267 -62 22 -184
28 -246 12z m200 -145 c76 -27 2114 -1198 2158 -1241 80 -75 117 -205 85 -297
-12 -33 -1580 -2765 -1585 -2761 0 1 181 679 404 1507 l406 1505 1 115 c1 110
0 118 -31 183 -43 90 -128 179 -207 216 -36 17 -396 117 -866 241 -443 118
-809 217 -814 221 -12 10 88 186 133 232 82 87 206 118 316 79z m-26 -578
c805 -214 1200 -324 1229 -340 74 -44 131 -148 132 -243 1 -20 -180 -717 -402
-1549 l-403 -1513 -5 1603 -5 1603 -37 78 c-60 126 -171 217 -299 246 -28 7
-363 11 -911 11 -478 0 -868 1 -868 3 0 26 86 259 106 288 50 73 150 127 238
128 22 1 567 -139 1225 -315z m228 -273 c65 -29 134 -101 159 -166 18 -49 19
-99 19 -1775 l0 -1725 -21 -46 c-30 -63 -79 -116 -138 -147 l-51 -27 -1270 0
-1270 0 -51 27 c-68 36 -130 108 -149 171 -23 76 -23 3428 0 3504 28 94 93
162 190 195 47 16 133 17 1290 15 l1240 -2 52 -24z"/>
<path d="M782 3793 c-29 -25 -295 -697 -287 -724 4 -11 21 -27 39 -36 30 -14
36 -14 62 0 22 12 36 33 60 93 l30 79 136 3 136 3 32 -78 c45 -112 79 -135
134 -92 17 14 26 30 26 50 0 41 -256 680 -282 702 -11 9 -30 17 -43 17 -13 0
-32 -8 -43 -17z m78 -339 c19 -48 37 -91 38 -95 2 -5 -32 -9 -76 -9 l-80 0 37
95 c20 52 38 95 41 95 3 0 21 -39 40 -86z"/>
<path d="M1295 2676 c-61 -19 -96 -41 -137 -83 -139 -143 -106 -376 88 -636
82 -109 329 -365 359 -373 38 -9 77 19 195 143 278 292 374 455 375 643 0 101
-23 161 -87 227 -63 64 -125 88 -228 87 -98 0 -138 -14 -199 -69 l-41 -37 -46
41 c-74 65 -183 87 -279 57z m177 -152 c15 -10 45 -47 67 -81 62 -93 99 -96
155 -10 56 87 100 117 172 117 50 0 95 -22 131 -63 39 -45 49 -93 35 -169 -23
-121 -108 -253 -296 -453 l-109 -117 -69 69 c-245 242 -370 458 -344 598 8 42
58 102 101 122 41 18 125 12 157 -13z"/>
<path d="M2381 1243 c-12 -11 -51 -100 -97 -218 -41 -110 -84 -218 -94 -240
-10 -22 -37 -89 -60 -148 -37 -92 -41 -111 -32 -133 18 -38 56 -51 95 -32 27
13 38 30 67 102 l35 86 133 0 133 0 29 -67 c46 -105 54 -117 83 -127 37 -13
81 19 85 61 4 39 -260 690 -290 716 -11 9 -30 17 -43 17 -13 0 -32 -8 -44 -17z
m76 -331 c18 -42 35 -85 39 -94 5 -16 -2 -18 -71 -18 -57 0 -76 3 -73 13 3 6
18 49 34 95 16 45 31 82 34 82 3 0 19 -35 37 -78z"/>
</g>
</svg>
